Patient4_TMGait_0pt5_01_left_12_GRF.mot
version=1
nRows=58
nColumns=19
inDegrees=no
endheader
time	F1x	F1y	F1z	M1x	M1y	M1z	F2x	F2y	F2z	M2x	M2y	M2z	EC1x	EC1y	EC1z	EC2x	EC2y	EC2z
16.04	20.7469	-6.4874	8.1897	1.1057	-1.7581	-2.4519	-30.9433	805.6047	-60.7534	315.7408	61.6628	685.0849	-0.0592	0.0182	-0.0073	-0.0462	0.0165	0.9585
16.0531	13.8101	-3.5288	5.468	0.43687	-1.2019	-0.95064	-30.2991	794.8846	-61.2036	311.411	61.6887	673.0585	-0.0592	0.0182	-0.0073	-0.0462	0.0165	0.9585
16.0661	7.9709	-0.98318	3.2138	-0.13751	-0.77185	0.35288	-28.8688	782.6119	-61.6432	306.4695	61.3382	659.2559	-0.0592	0.0182	-0.0073	-0.0462	0.0165	0.9585
16.0792	3.5401	1.0013	1.5232	-0.58634	-0.46248	1.3854	-26.6287	769.7823	-61.9951	301.3171	60.5402	644.6291	-0.0592	0.0182	-0.0073	-0.0462	0.0165	0.9585
16.0923	0.48572	2.4214	0.38535	-0.91019	-0.27072	2.1331	-23.682	757.5565	-62.2237	296.4211	59.3139	630.2363	-0.0592	0.0182	-0.0073	-0.0462	0.0165	0.9585
16.1054	-1.4047	3.3434	-0.30055	-1.1248	-0.16565	2.6189	-20.2133	747.0327	-62.3345	292.2208	57.758	617.0634	-0.0592	0.0182	-0.0073	-0.0462	0.0165	0.9585
16.1184	-2.4175	3.8628	-0.63901	-1.2489	-0.13748	2.9017	-16.461	739.0801	-62.3251	289.0615	55.9817	605.8963	-0.0592	0.0182	-0.0073	-0.0462	0.0165	0.9585
16.1315	-2.8265	4.0582	-0.74296	-1.297	-0.16121	3.0095	-12.676	734.1949	-62.199	287.1399	54.0982	597.1977	-0.0592	0.0182	-0.0073	-0.0462	0.0165	0.9585
16.1446	-2.884	3.9843	-0.69725	-1.274	-0.22958	2.968	-9.081	732.4297	-61.968	286.4733	52.2098	591.0597	-0.0592	0.0182	-0.0073	-0.0462	0.0165	0.9585
16.1576	-2.7674	3.6425	-0.58368	-1.1701	-0.31414	2.7317	-5.824	733.4129	-61.6653	286.9125	50.405	587.2138	-0.0592	0.0182	-0.0073	-0.0462	0.0165	0.9585
16.1707	-2.6077	3.0043	-0.45008	-0.96369	-0.4062	2.2433	-2.9878	736.4766	-61.3287	288.1912	48.7483	585.1509	-0.0592	0.0182	-0.0073	-0.0462	0.0165	0.9585
16.1838	-2.4738	1.9976	-0.34525	-0.6207	-0.47964	1.4081	-0.58279	740.798	-61.0079	289.9829	47.2842	584.2226	-0.0592	0.0182	-0.0073	-0.0462	0.0165	0.9585
16.1969	-2.3874	0.54021	-0.29075	-0.10445	-0.51858	0.13697	1.4199	745.5227	-60.7532	291.9468	46.0397	583.7557	-0.0592	0.0182	-0.0073	-0.0462	0.0165	0.9585
16.2099	-2.3223	-1.4095	-0.31012	0.60225	-0.49057	-1.6122	3.0771	749.8469	-60.6073	293.7602	45.0239	583.1153	-0.0592	0.0182	-0.0073	-0.0462	0.0165	0.9585
16.223	-2.2039	-3.8258	-0.40197	1.4873	-0.37236	-3.8113	4.4505	753.1029	-60.5863	295.1541	44.2202	581.7798	-0.0592	0.0182	-0.0073	-0.0462	0.0165	0.9585
16.2361	-1.9365	-6.5142	-0.58072	2.477	-0.11687	-6.2726	5.5928	754.8056	-60.6721	295.932	43.5901	579.3894	-0.0592	0.0182	-0.0073	-0.0462	0.0165	0.9585
16.2491	-1.3786	-9.0299	-0.8263	3.4014	0.3072	-8.5862	6.5479	754.5798	-60.8186	295.9448	43.0774	575.6742	-0.0592	0.0182	-0.0073	-0.0462	0.0165	0.9585
16.2622	-0.37247	-10.571	-1.1171	3.958	0.93763	-10.0171	7.3268	752.1	-60.9825	295.0598	42.6364	570.417	-0.0592	0.0182	-0.0073	-0.0462	0.0165	0.9585
16.2753	1.252	-9.905	-1.3829	3.6845	1.7723	-9.4511	7.9393	747.0681	-61.1292	293.1529	42.2324	563.4258	-0.0592	0.0182	-0.0073	-0.0462	0.0165	0.9585
16.2884	3.6289	-5.3022	-1.5331	1.9368	2.7782	-5.3154	8.3929	739.2246	-61.2268	290.1135	41.839	554.5533	-0.0592	0.0182	-0.0073	-0.0462	0.0165	0.9585
16.3014	6.7957	5.4154	-1.4208	-2.0935	3.835	4.3932	8.7303	728.2962	-61.2282	285.8282	41.4162	543.6324	-0.0592	0.0182	-0.0073	-0.0462	0.0165	0.9585
16.3145	10.5989	24.6889	-0.86049	-9.3094	4.7148	21.9441	9.0049	713.9003	-61.043	280.1434	40.8922	530.4357	-0.0592	0.0182	-0.0073	-0.0462	0.0165	0.9585
16.3276	14.4948	54.8967	0.36964	-20.5832	5.0109	49.5583	9.2721	695.4437	-60.5349	272.8268	40.1641	514.583	-0.0592	0.0182	-0.0073	-0.0462	0.0165	0.9585
16.3406	17.3283	97.7727	2.4457	-36.5404	4.1253	88.8683	9.5424	672.0984	-59.5234	263.5586	39.1145	495.531	-0.0592	0.0182	-0.0073	-0.0462	0.0165	0.9585
16.3537	17.3491	153.7233	5.5196	-57.3054	1.2704	140.3143	9.7707	642.9149	-57.8343	251.9748	37.6532	472.6453	-0.0592	0.0182	-0.0073	-0.0462	0.0165	0.9585
16.3668	13.3837	221.4696	9.71	-82.3674	-4.0883	202.7821	9.8938	607.0996	-55.3352	237.7769	35.7244	445.3737	-0.0592	0.0182	-0.0073	-0.0462	0.0165	0.9585
16.3799	5.6992	297.5178	15.0288	-110.3828	-11.8406	273.02	9.8354	564.3325	-51.9872	220.8515	33.3367	413.4792	-0.0592	0.0182	-0.0073	-0.0462	0.0165	0.9585
16.3929	-4.4443	375.4696	21.5469	-138.9582	-21.5546	344.9016	9.5649	514.9176	-47.8712	201.3383	30.5608	377.1093	-0.0592	0.0182	-0.0073	-0.0462	0.0165	0.9585
16.406	-15.233	449.0558	28.8907	-165.7976	-32.195	412.319	9.0875	459.9833	-43.1655	179.7007	27.5122	336.9717	-0.0592	0.0182	-0.0073	-0.0462	0.0165	0.9585
16.4191	-25.1214	514.8351	36.2361	-189.6847	-42.4161	471.869	8.4592	401.4085	-38.1345	156.6867	24.3301	294.3007	-0.0592	0.0182	-0.0073	-0.0462	0.0165	0.9585
16.4321	-32.9808	571.4898	42.7226	-210.2066	-51.0149	522.2473	7.7299	341.3079	-33.1476	133.1222	21.2266	250.5272	-0.0592	0.0182	-0.0073	-0.0462	0.0165	0.9585
16.4452	-38.2553	618.7124	47.7873	-227.3087	-57.29	563.2216	6.8295	281.6633	-28.4538	109.7752	18.37	207.0488	-0.0592	0.0182	-0.0073	-0.0462	0.0165	0.9585
16.4583	-40.8229	656.727	51.1759	-241.1079	-61	595.0764	5.6711	224.3942	-24.1403	87.3852	15.8315	165.2545	-0.0592	0.0182	-0.0073	-0.0462	0.0165	0.9585
16.4714	-40.9911	686.3074	52.9909	-251.8867	-62.3881	618.6906	4.2334	171.4037	-20.1847	66.6856	13.5906	126.5394	-0.0592	0.0182	-0.0073	-0.0462	0.0165	0.9585
16.4844	-39.3353	708.6891	53.4924	-260.0814	-61.9354	635.3963	2.6325	124.4558	-16.532	48.3578	11.5684	92.193	-0.0592	0.0182	-0.0073	-0.0462	0.0165	0.9585
16.4975	-36.6232	725.4234	53.0886	-266.2284	-60.3095	646.8435	1.0801	84.9322	-13.1511	32.9357	9.6725	63.2321	-0.0592	0.0182	-0.0073	-0.0462	0.0165	0.9585
16.5106	-33.5954	738.0455	52.1543	-270.8629	-58.1258	654.6085	-0.18141	53.4886	-10.0511	20.6771	7.8317	40.1335	-0.0592	0.0182	-0.0073	-0.0462	0.0165	0.9585
16.5236	-30.8398	747.8783	51.0344	-274.4501	-55.9067	660.0064	-1.0072	29.9636	-7.2658	11.521	6.0311	22.7911	-0.0592	0.0182	-0.0073	-0.0462	0.0165	0.9585
16.5367	-28.675	755.9979	49.9153	-277.3801	-53.9228	664.0408	-1.3919	13.5872	-4.832	5.1636	4.3076	10.6576	-0.0592	0.0182	-0.0073	-0.0462	0.0165	0.9585
16.5498	-27.1798	763.1447	48.8924	-279.9286	-52.2721	667.3426	-1.441	3.2166	-2.8208	1.1507	2.7657	2.9258	-0.0592	0.0182	-0.0073	-0.0462	0.0165	0.9585
16.5629	-26.2899	769.6339	47.9701	-282.2162	-50.9153	670.1415	-1.3019	-2.4782	-1.3027	-1.0436	1.5214	-1.351	-0.0592	0.0182	-0.0073	-0.0462	0.0165	0.9585
16.5759	-25.8076	775.3566	47.1924	-284.2059	-49.8052	672.2761	-1.0783	-4.8614	-0.28088	-1.9523	0.62507	-3.1714	-0.0592	0.0182	-0.0073	-0.0462	0.0165	0.9585
16.589	-25.5006	779.954	46.5975	-285.7681	-48.8775	673.3878	-0.84898	-5.1289	0.34439	-2.0423	0.030992	-3.4067	-0.0592	0.0182	-0.0073	-0.0462	0.0165	0.9585
16.6021	-25.1044	783.0275	46.2148	-286.7586	-48.0639	673.0735	-0.64163	-4.2329	0.65859	-1.6823	-0.30804	-2.7723	-0.0592	0.0182	-0.0073	-0.0462	0.0165	0.9585
16.6151	-24.3898	784.3046	46.0307	-287.0789	-47.2782	671.059	-0.48112	-2.8437	0.76888	-1.1318	-0.46899	-1.7615	-0.0592	0.0182	-0.0073	-0.0462	0.0165	0.9585
16.6282	-23.1818	783.7233	46.0152	-286.7058	-46.4473	667.2674	-0.36331	-1.3933	0.74099	-0.55815	-0.4999	-0.70085	-0.0592	0.0182	-0.0073	-0.0462	0.0165	0.9585
16.6413	-21.3912	781.4435	46.1344	-285.6965	-45.5182	661.8235	-0.28676	-0.12048	0.64563	-0.053959	-0.45669	0.2272	-0.0592	0.0182	-0.0073	-0.0462	0.0165	0.9585
16.6544	-19.0039	777.8331	46.3771	-284.1797	-44.4811	655.0674	-0.24476	0.87636	0.51656	0.34169	-0.36668	0.94845	-0.0592	0.0182	-0.0073	-0.0462	0.0165	0.9585
16.6674	-16.0761	773.3613	46.7413	-282.3195	-43.3577	647.4475	-0.22023	1.5754	0.38721	0.62178	-0.26498	1.4422	-0.0592	0.0182	-0.0073	-0.0462	0.0165	0.9585
16.6805	-12.7523	768.564	47.2335	-280.2982	-42.2078	639.499	-0.22052	2.0115	0.26775	0.80033	-0.1607	1.7424	-0.0592	0.0182	-0.0073	-0.0462	0.0165	0.9585
16.6936	-9.2511	763.9814	47.8402	-278.2976	-41.0945	631.7664	-0.2319	2.238	0.16578	0.89882	-0.064002	1.8802	-0.0592	0.0182	-0.0073	-0.0462	0.0165	0.9585
16.7066	-5.8395	760.1167	48.5433	-276.4824	-40.0948	624.7794	-0.25882	2.3282	0.083946	0.9432	0.023054	1.9233	-0.0592	0.0182	-0.0073	-0.0462	0.0165	0.9585
16.7197	-2.7711	757.382	49.2951	-274.9885	-39.2526	618.9663	-0.29004	2.3282	0.024324	0.95175	0.093454	1.9032	-0.0592	0.0182	-0.0073	-0.0462	0.0165	0.9585
16.7328	-0.25781	756.0693	50.0507	-273.9103	-38.599	614.6267	-0.322	2.2818	-0.017203	0.94054	0.14803	1.8537	-0.0592	0.0182	-0.0073	-0.0462	0.0165	0.9585
16.7459	1.5809	756.2722	50.7528	-273.2802	-38.1184	611.8493	-0.34624	2.2243	-0.042258	0.92281	0.18625	1.8013	-0.0592	0.0182	-0.0073	-0.0462	0.0165	0.9585
16.7589	2.7328	757.8649	51.3789	-273.0587	-37.7919	610.507	-0.35776	2.1785	-0.052062	0.90758	0.2083	1.7588	-0.0592	0.0182	-0.0073	-0.0462	0.0165	0.9585
16.772	3.2914	760.5132	51.8968	-273.1452	-37.559	610.2709	-0.36045	2.1681	-0.04872	0.90361	0.21763	1.7445	-0.0592	0.0182	-0.0073	-0.0462	0.0165	0.9585
16.7851	3.4377	763.7104	52.2985	-273.3897	-37.3547	610.6348	-0.34826	2.1917	-0.039418	0.913	0.21911	1.7493	-0.0592	0.0182	-0.0073	-0.0462	0.0165	0.9585
